<svg width="48" height="49" viewBox="0 0 48 49" fill="none" xmlns="http://www.w3.org/2000/svg">
<circle cx="24" cy="24.9375" r="24" fill="#EA9715" fill-opacity="0.9"/>
<g clip-path="url(#clip0_78_1300)">
<path d="M19.5004 32.8281H16.2191V22.2344H19.5004V32.8281ZM19.8278 18.8592C19.8278 17.7985 18.9672 16.9375 17.907 16.9375C16.8428 16.9375 15.9844 17.7985 15.9844 18.8592C15.9844 19.9203 16.8428 20.7812 17.907 20.7812C18.9672 20.7812 19.8278 19.9203 19.8278 18.8592ZM31.7812 26.9999C31.7812 24.1561 31.1805 22.0469 27.8584 22.0469C26.2621 22.0469 25.1906 22.8452 24.7531 23.6754H24.75V22.2344H21.5625V32.8281H24.75V27.5682C24.75 26.1907 25.1006 24.8563 26.8081 24.8563C28.4923 24.8563 28.5469 26.4315 28.5469 27.6558V32.8281H31.7812V26.9999ZM36 34.1875V15.8125C36 14.2616 34.7384 13 33.1875 13H14.8125C13.2616 13 12 14.2616 12 15.8125V34.1875C12 35.7384 13.2616 37 14.8125 37H33.1875C34.7384 37 36 35.7384 36 34.1875V34.1875ZM33.1875 14.875C33.7044 14.875 34.125 15.2956 34.125 15.8125V34.1875C34.125 34.7044 33.7044 35.125 33.1875 35.125H14.8125C14.2956 35.125 13.875 34.7044 13.875 34.1875V15.8125C13.875 15.2956 14.2956 14.875 14.8125 14.875H33.1875Z" fill="#475443"/>
</g>
<defs>
<clipPath id="clip0_78_1300">
<rect width="24" height="24" fill="white" transform="translate(12 13)"/>
</clipPath>
</defs>
</svg>
