<svg width="48" height="49" viewBox="0 0 48 49" fill="none" xmlns="http://www.w3.org/2000/svg">
<circle cx="24" cy="24.9375" r="24" fill="#EA9715" fill-opacity="0.9"/>
<path d="M36 16.6054C35.118 17.0475 34.168 17.3452 33.172 17.4806C34.19 16.7926 34.968 15.7053 35.338 14.4083C34.386 15.0444 33.332 15.5068 32.21 15.7549C31.314 14.6745 30.032 14 28.618 14C25.438 14 23.102 17.3452 23.82 20.819C19.73 20.5867 16.1 18.3761 13.672 15.0173C12.382 17.5122 13.004 20.7784 15.196 22.4319C14.39 22.4025 13.632 22.1522 12.968 21.7371C12.914 24.3086 14.55 26.7155 16.918 27.2523C16.226 27.4644 15.466 27.514 14.694 27.3471C15.32 29.5532 17.142 31.157 19.294 31.2021C17.22 33.0337 14.614 33.8526 12 33.5052C14.18 35.0819 16.766 36 19.546 36C28.69 36 33.854 27.2907 33.542 19.4791C34.506 18.6987 35.34 17.7197 36 16.6054V16.6054Z" fill="#475443"/>
</svg>
