<svg width="26" height="25" viewBox="0 0 26 25" fill="none" xmlns="http://www.w3.org/2000/svg">
<path opacity="0.4" d="M21.5656 8.4274C21.5656 8.58365 21.5656 8.7399 21.5552 8.88573C19.9614 8.29198 18.0864 8.65657 16.8364 9.78157C15.9927 9.02115 14.8989 8.59407 13.7323 8.59407C11.1698 8.59407 9.08643 10.6878 9.08643 13.2712C9.08643 16.2191 10.5656 18.3753 11.9823 19.7711C11.8677 19.7607 11.7739 19.7399 11.6906 19.7086C8.99268 18.7816 2.96143 14.9482 2.96143 8.4274C2.96143 5.5524 5.27392 3.22949 8.12809 3.22949C9.826 3.22949 11.326 4.04198 12.2635 5.3024C13.2114 4.04198 14.7114 3.22949 16.3989 3.22949C19.2531 3.22949 21.5656 5.5524 21.5656 8.4274Z" fill="white"/>
<path d="M19.6277 9.98889C18.5131 9.98889 17.5027 10.5306 16.8777 11.3639C16.2527 10.5306 15.2527 9.98889 14.1277 9.98889C12.2318 9.98889 10.6902 11.5306 10.6902 13.4472C10.6902 14.1868 10.8048 14.8639 11.0131 15.4889C11.9923 18.5826 15.0027 20.4264 16.4922 20.9368C16.7006 21.0097 17.0443 21.0097 17.2631 20.9368C18.7527 20.4264 21.7631 18.5826 22.7422 15.4889C22.9506 14.8535 23.0652 14.1764 23.0652 13.4472C23.0652 11.5306 21.5235 9.98889 19.6277 9.98889Z" fill="white"/>
</svg>
