<svg width="36" height="37" viewBox="0 0 36 37" fill="none" xmlns="http://www.w3.org/2000/svg">
<path opacity="0.4" d="M24.285 3.5H11.73C6.27001 3.5 3.01501 6.755 3.01501 12.215V24.77C3.01501 30.23 6.27001 33.485 11.73 33.485H24.285C29.745 33.485 33 30.23 33 24.77V12.215C33 6.755 29.745 3.5 24.285 3.5Z" fill="#475443"/>
<path d="M25.5 24.455C23.535 24.455 21.66 23.5551 20.16 21.8901C21.645 19.9851 22.605 17.6301 22.815 15.0501H25.485C26.1 15.0501 26.61 14.5401 26.61 13.9251C26.61 13.3101 26.1 12.8001 25.485 12.8001H21.84C21.81 12.8001 21.78 12.785 21.75 12.785C21.72 12.785 21.69 12.8001 21.66 12.8001H19.125V11.405C19.125 10.79 18.615 10.28 18 10.28C17.385 10.28 16.875 10.79 16.875 11.405V12.8001H10.515C9.90001 12.8001 9.39001 13.3101 9.39001 13.9251C9.39001 14.5401 9.90001 15.0501 10.515 15.0501H18H20.55C19.995 20.3301 15.705 24.455 10.485 24.455C9.86999 24.455 9.35999 24.965 9.35999 25.58C9.35999 26.195 9.86999 26.705 10.485 26.705C13.59 26.705 16.425 25.505 18.6 23.54C20.505 25.58 22.92 26.705 25.485 26.705C26.1 26.705 26.61 26.195 26.61 25.58C26.61 24.965 26.115 24.455 25.5 24.455Z" fill="#475443"/>
</svg>
