<svg width="30" height="31" viewBox="0 0 30 31" fill="none" xmlns="http://www.w3.org/2000/svg">
<path d="M10.4875 23.6125V10.9125C10.4875 10.4125 10.6375 9.92503 10.9125 9.51253L14.325 4.43753C14.8625 3.62503 16.2 3.05003 17.3375 3.47503C18.5625 3.88753 19.375 5.26253 19.1125 6.48753L18.4625 10.575C18.4125 10.95 18.5125 11.2875 18.725 11.55C18.9375 11.7875 19.25 11.9375 19.5875 11.9375H24.725C25.7125 11.9375 26.5625 12.3375 27.0625 13.0375C27.5375 13.7125 27.625 14.5875 27.3125 15.475L24.2375 24.8375C23.85 26.3875 22.1625 27.65 20.4875 27.65H15.6125C14.775 27.65 13.6 27.3625 13.0625 26.825L11.4625 25.5875C10.85 25.125 10.4875 24.3875 10.4875 23.6125Z" fill="#EA9715"/>
<path d="M6.5125 8.47498H5.225C3.2875 8.47498 2.5 9.22498 2.5 11.075V23.65C2.5 25.5 3.2875 26.25 5.225 26.25H6.5125C8.45 26.25 9.2375 25.5 9.2375 23.65V11.075C9.2375 9.22498 8.45 8.47498 6.5125 8.47498Z" fill="#EA9715"/>
</svg>
