<svg width="30" height="31" viewBox="0 0 30 31" fill="none" xmlns="http://www.w3.org/2000/svg">
<path d="M25.85 17.8875V17.875C24.75 16.7125 23.2125 16 21.5 16C18.1875 16 15.5 18.6875 15.5 22C15.5 23.5375 16.0875 24.9375 17.0375 26C18.1375 27.225 19.725 28 21.5 28C24.8125 28 27.5 25.3125 27.5 22C27.5 20.4125 26.875 18.9625 25.85 17.8875ZM23.7375 23.0125H22.4375V24.375C22.4375 24.8875 22.0125 25.3125 21.5 25.3125C20.9875 25.3125 20.5625 24.8875 20.5625 24.375V23.0125H19.2624C18.7374 23.0125 18.3249 22.6 18.3249 22.075C18.3249 21.5625 18.725 21.15 19.25 21.1375H20.5625V19.8875C20.5625 19.8625 20.5625 19.8375 20.575 19.8125C20.6 19.3375 21.0125 18.95 21.5 18.95C22 18.95 22.4125 19.35 22.4375 19.85V21.1375H23.7375C24.2625 21.1375 24.675 21.5625 24.675 22.075C24.675 22.6 24.2625 23.0125 23.7375 23.0125Z" fill="#475443"/>
<path opacity="0.4" d="M27.5 11.3625C27.5 12.85 27.2625 14.225 26.85 15.5C26.5875 16.3375 26.25 17.1375 25.85 17.875C24.75 16.7125 23.2125 16 21.5 16C18.1875 16 15.5 18.6875 15.5 22C15.5 23.5375 16.0875 24.9375 17.0375 26C16.575 26.2125 16.15 26.3875 15.775 26.5125C15.35 26.6625 14.65 26.6625 14.225 26.5125C11.2125 25.4875 5.12502 21.75 3.15002 15.5C2.73752 14.225 2.5 12.85 2.5 11.3625C2.5 7.5 5.6125 4.375 9.45 4.375C11.7125 4.375 13.7375 5.47498 15 7.16248C16.2625 5.47498 18.2875 4.375 20.55 4.375C24.3875 4.375 27.5 7.5 27.5 11.3625Z" fill="#475443"/>
</svg>
