<svg width="30" height="31" viewBox="0 0 30 31" fill="none" xmlns="http://www.w3.org/2000/svg">
<path opacity="0.4" d="M20.2375 3H9.7625C5.2125 3 2.5 5.7125 2.5 10.2625V20.725C2.5 25.2875 5.2125 28 9.7625 28H20.225C24.775 28 27.4875 25.2875 27.4875 20.7375V10.2625C27.5 5.7125 24.7875 3 20.2375 3Z" fill="#475443"/>
<path d="M17.825 15.5L15.9375 14.8375V10.6H16.3875C17.4 10.6 18.225 11.4875 18.225 12.575C18.225 13.0875 18.65 13.5125 19.1625 13.5125C19.675 13.5125 20.1 13.0875 20.1 12.575C20.1 10.45 18.4375 8.725 16.3875 8.725H15.9375V8C15.9375 7.4875 15.5125 7.0625 15 7.0625C14.4875 7.0625 14.0625 7.4875 14.0625 8V8.725H13.25C11.4 8.725 9.88745 10.2875 9.88745 12.2C9.88745 14.4375 11.1875 15.15 12.175 15.5L14.0625 16.1625V20.3875H13.6125C12.6 20.3875 11.775 19.5 11.775 18.4125C11.775 17.9 11.35 17.475 10.8375 17.475C10.325 17.475 9.89995 17.9 9.89995 18.4125C9.89995 20.5375 11.5625 22.2625 13.6125 22.2625H14.0625V23C14.0625 23.5125 14.4875 23.9375 15 23.9375C15.5125 23.9375 15.9375 23.5125 15.9375 23V22.275H16.75C18.6 22.275 20.1125 20.7125 20.1125 18.8C20.1 16.55 18.8 15.8375 17.825 15.5ZM12.8 13.7375C12.1625 13.5125 11.775 13.3 11.775 12.2125C11.775 11.325 12.4375 10.6125 13.2625 10.6125H14.075V14.1875L12.8 13.7375ZM16.75 20.4H15.9375V16.825L17.2 17.2625C17.8375 17.4875 18.225 17.7 18.225 18.7875C18.225 19.675 17.5625 20.4 16.75 20.4Z" fill="#475443"/>
</svg>
