<svg width="41" height="41" viewBox="0 0 41 41" fill="none" xmlns="http://www.w3.org/2000/svg">
<path d="M37.4166 28.0874V7.97074C37.4166 5.97074 35.7833 4.48741 33.7999 4.65407H33.6999C30.1999 4.95407 24.8833 6.73741 21.9166 8.60407L21.6333 8.78741C21.1499 9.08741 20.3499 9.08741 19.8666 8.78741L19.4499 8.53741C16.4833 6.68741 11.1833 4.92074 7.68325 4.63741C5.69992 4.47074 4.08325 5.97074 4.08325 7.95407V28.0874C4.08325 29.6874 5.38325 31.1874 6.98325 31.3874L7.46659 31.4541C11.0833 31.9374 16.6666 33.7707 19.8666 35.5207L19.9333 35.5541C20.3833 35.8041 21.0999 35.8041 21.5333 35.5541C24.7333 33.7874 30.3333 31.9374 33.9666 31.4541L34.5166 31.3874C36.1166 31.1874 37.4166 29.6874 37.4166 28.0874Z" stroke="#FAFAFA" stroke-width="1.5" stroke-linecap="round" stroke-linejoin="round"/>
<path d="M20.75 9.3374V34.3374" stroke="#FAFAFA" stroke-width="1.5" stroke-linecap="round" stroke-linejoin="round"/>
<path d="M13.6667 14.3374H9.91675" stroke="#FAFAFA" stroke-width="1.5" stroke-linecap="round" stroke-linejoin="round"/>
<path d="M14.9167 19.3374H9.91675" stroke="#FAFAFA" stroke-width="1.5" stroke-linecap="round" stroke-linejoin="round"/>
</svg>
