<svg width="36" height="37" viewBox="0 0 36 37" fill="none" xmlns="http://www.w3.org/2000/svg">
<path opacity="0.4" d="M25.38 33.5C21.18 33.5 17.76 30.095 17.76 25.88C17.76 21.68 21.165 18.26 25.38 18.26C29.58 18.26 33 21.665 33 25.88C33 30.095 29.595 33.5 25.38 33.5Z" fill="#475443"/>
<path opacity="0.4" d="M7.53001 3.5H13.41C16.515 3.5 18.015 4.99998 17.94 8.02998V13.91C18.015 17.015 16.515 18.515 13.41 18.44H7.53001C4.50001 18.5 3 17 3 13.895V8.01501C3 5.00001 4.50001 3.5 7.53001 3.5Z" fill="#475443"/>
<path d="M13.515 12.89C13.05 12.89 12.615 12.71 12.21 12.41C12.585 11.81 12.855 11.135 12.99 10.4H13.5C14.115 10.4 14.625 9.88999 14.625 9.27499C14.625 8.65999 14.115 8.14999 13.5 8.14999H12.015C12 8.14999 11.985 8.14999 11.985 8.14999H11.955H11.565C11.505 7.57999 11.04 7.13 10.455 7.13C9.87003 7.13 9.40502 7.57999 9.34502 8.14999H7.41003C6.79503 8.14999 6.28503 8.65999 6.28503 9.27499C6.28503 9.88999 6.79503 10.4 7.41003 10.4H10.665C10.215 11.84 8.92502 12.89 7.39502 12.89C6.78002 12.89 6.27002 13.4 6.27002 14.015C6.27002 14.63 6.78002 15.14 7.39502 15.14C8.61002 15.14 9.73503 14.735 10.665 14.06C11.49 14.75 12.48 15.14 13.5 15.14C14.115 15.14 14.625 14.63 14.625 14.015C14.625 13.4 14.13 12.89 13.515 12.89Z" fill="#475443"/>
<path d="M13.5 34.625C7.095 34.625 1.875 29.405 1.875 23C1.875 22.385 2.385 21.875 3 21.875C3.615 21.875 4.125 22.385 4.125 23C4.125 27.44 7.215 31.16 11.37 32.135L10.965 31.46C10.65 30.92 10.815 30.23 11.355 29.915C11.88 29.6 12.585 29.765 12.9 30.305L14.475 32.93C14.685 33.275 14.685 33.71 14.49 34.055C14.28 34.4 13.905 34.625 13.5 34.625Z" fill="#475443"/>
<path d="M33 15.125C32.385 15.125 31.875 14.615 31.875 14C31.875 9.56 28.785 5.84001 24.63 4.86501L25.035 5.53998C25.35 6.07998 25.185 6.77002 24.645 7.08502C24.12 7.40002 23.415 7.23501 23.1 6.69501L21.525 4.07001C21.315 3.72501 21.315 3.29001 21.51 2.94501C21.705 2.58501 22.08 2.375 22.485 2.375C28.89 2.375 34.11 7.595 34.11 14C34.125 14.615 33.615 15.125 33 15.125Z" fill="#475443"/>
<path d="M29.5949 27.9949L26.3849 21.5899C26.1899 21.2149 25.7999 20.96 25.3799 20.96C24.9599 20.96 24.5699 21.1999 24.3749 21.5749L21.1649 27.9799C20.8799 28.5349 21.1049 29.2099 21.6749 29.4949C21.8399 29.5699 22.0049 29.6149 22.1699 29.6149C22.5749 29.6149 22.9799 29.3899 23.1749 28.9999L23.4299 28.4899H27.315L27.57 28.9999C27.855 29.5549 28.5299 29.7799 29.0849 29.5099C29.6549 29.2249 29.8799 28.5499 29.5949 27.9949ZM24.5699 26.2399L25.3949 24.6049L26.2199 26.2399H24.5699Z" fill="#475443"/>
</svg>
