<svg width="41" height="41" viewBox="0 0 41 41" fill="none" xmlns="http://www.w3.org/2000/svg">
<path opacity="0.4" d="M20.7499 9.02074V35.7374C20.4666 35.7374 20.1666 35.6874 19.9333 35.5541L19.8666 35.5207C16.6666 33.7707 11.0833 31.9374 7.46659 31.4541L6.98325 31.3874C5.38325 31.1874 4.08325 29.6874 4.08325 28.0874V7.95407C4.08325 5.97074 5.69992 4.47074 7.68325 4.63741C11.1833 4.92074 16.4833 6.68741 19.4499 8.53741L19.8666 8.78741C20.1166 8.93741 20.4333 9.02074 20.7499 9.02074Z" fill="#FAFAFA"/>
<path d="M37.4167 7.9708V28.0875C37.4167 29.6875 36.1167 31.1875 34.5167 31.3875L33.9667 31.4541C30.3333 31.9375 24.7333 33.7875 21.5333 35.5541C21.3167 35.6875 21.05 35.7375 20.75 35.7375V9.0208C21.0667 9.0208 21.3833 8.93747 21.6333 8.78747L21.9167 8.60413C24.8833 6.73747 30.2 4.95413 33.7 4.65413H33.8C35.7833 4.48747 37.4167 5.9708 37.4167 7.9708Z" fill="#FAFAFA"/>
<path d="M13.6667 15.5874H9.91675C9.23341 15.5874 8.66675 15.0207 8.66675 14.3374C8.66675 13.6541 9.23341 13.0874 9.91675 13.0874H13.6667C14.3501 13.0874 14.9167 13.6541 14.9167 14.3374C14.9167 15.0207 14.3501 15.5874 13.6667 15.5874Z" fill="#FAFAFA"/>
<path d="M14.9167 20.5874H9.91675C9.23341 20.5874 8.66675 20.0207 8.66675 19.3374C8.66675 18.6541 9.23341 18.0874 9.91675 18.0874H14.9167C15.6001 18.0874 16.1667 18.6541 16.1667 19.3374C16.1667 20.0207 15.6001 20.5874 14.9167 20.5874Z" fill="#FAFAFA"/>
</svg>
