<svg width="31" height="30" viewBox="0 0 31 30" fill="none" xmlns="http://www.w3.org/2000/svg">
<path opacity="0.4" d="M22.7904 9.71251C22.7029 9.70001 22.6154 9.70001 22.5279 9.71251C20.5904 9.65001 19.0529 8.0625 19.0529 6.1125C19.0529 4.125 20.6654 2.5 22.6654 2.5C24.6529 2.5 26.2779 4.1125 26.2779 6.1125C26.2654 8.0625 24.7279 9.65001 22.7904 9.71251Z" fill="#0014CC"/>
<path opacity="0.4" d="M26.8653 18.375C25.4653 19.3125 23.5028 19.6625 21.6903 19.425C22.1653 18.4 22.4153 17.2625 22.4278 16.0625C22.4278 14.8125 22.1528 13.625 21.6278 12.5875C23.4778 12.3375 25.4403 12.6875 26.8528 13.625C28.8278 14.925 28.8278 17.0625 26.8653 18.375Z" fill="#0014CC"/>
<path opacity="0.4" d="M8.9278 9.71251C9.0153 9.70001 9.10281 9.70001 9.19031 9.71251C11.1278 9.65001 12.6653 8.0625 12.6653 6.1125C12.6653 4.125 11.0528 2.5 9.05281 2.5C7.06531 2.5 5.44031 4.1125 5.44031 6.1125C5.45281 8.0625 6.9903 9.65001 8.9278 9.71251Z" fill="#0014CC"/>
<path opacity="0.4" d="M9.06533 16.0624C9.06533 17.2749 9.32783 18.4249 9.80283 19.4624C8.04033 19.6499 6.20283 19.2749 4.85283 18.3874C2.87783 17.0749 2.87783 14.9374 4.85283 13.6249C6.19033 12.7249 8.07783 12.3624 9.85283 12.5624C9.34033 13.6124 9.06533 14.7999 9.06533 16.0624Z" fill="#0014CC"/>
<path d="M16.0278 19.8375C15.9278 19.825 15.8153 19.825 15.7028 19.8375C13.4028 19.7625 11.5653 17.875 11.5653 15.55C11.5653 13.175 13.4778 11.25 15.8653 11.25C18.2403 11.25 20.1653 13.175 20.1653 15.55C20.1653 17.875 18.3403 19.7625 16.0278 19.8375Z" fill="#0014CC"/>
<path d="M11.9653 22.4249C10.0778 23.6874 10.0778 25.7624 11.9653 27.0124C14.1153 28.4499 17.6403 28.4499 19.7903 27.0124C21.6778 25.7499 21.6778 23.6749 19.7903 22.4249C17.6528 20.9874 14.1278 20.9874 11.9653 22.4249Z" fill="#0014CC"/>
</svg>
