<svg width="24" height="25" viewBox="0 0 24 25" fill="none" xmlns="http://www.w3.org/2000/svg">
<rect y="0.5" width="24" height="24" rx="7" fill="#475443" fill-opacity="0.3"/>
<path opacity="0.4" d="M21.0899 22C21.0899 22.28 20.8699 22.5 20.5899 22.5H3.40991C3.12991 22.5 2.90991 22.28 2.90991 22C2.90991 17.86 6.98991 14.5 11.9999 14.5C13.0299 14.5 14.0299 14.64 14.9499 14.91C14.3599 15.61 13.9999 16.52 13.9999 17.5C13.9999 18.25 14.2099 18.96 14.5799 19.56C14.7799 19.9 15.0399 20.21 15.3399 20.47C16.0399 21.11 16.9699 21.5 17.9999 21.5C19.1199 21.5 20.1299 21.04 20.8499 20.3C21.0099 20.84 21.0899 21.41 21.0899 22Z" fill="#475443"/>
<path d="M20.97 14.83C20.25 14.01 19.18 13.5 18 13.5C16.88 13.5 15.86 13.96 15.13 14.71C14.43 15.43 14 16.42 14 17.5C14 18.25 14.21 18.96 14.58 19.56C14.78 19.9 15.04 20.21 15.34 20.47C16.04 21.11 16.97 21.5 18 21.5C19.46 21.5 20.73 20.72 21.42 19.56C21.63 19.22 21.79 18.83 21.88 18.43C21.96 18.13 22 17.82 22 17.5C22 16.48 21.61 15.54 20.97 14.83ZM19.5 18.23H18.75V19.01C18.75 19.42 18.41 19.76 18 19.76C17.59 19.76 17.25 19.42 17.25 19.01V18.23H16.5C16.09 18.23 15.75 17.89 15.75 17.48C15.75 17.07 16.09 16.73 16.5 16.73H17.25V16.02C17.25 15.61 17.59 15.27 18 15.27C18.41 15.27 18.75 15.61 18.75 16.02V16.73H19.5C19.91 16.73 20.25 17.07 20.25 17.48C20.25 17.89 19.91 18.23 19.5 18.23Z" fill="#475443"/>
<path d="M12 12.5C14.7614 12.5 17 10.2614 17 7.5C17 4.73858 14.7614 2.5 12 2.5C9.23858 2.5 7 4.73858 7 7.5C7 10.2614 9.23858 12.5 12 12.5Z" fill="#475443"/>
</svg>
