<svg width="30" height="30" viewBox="0 0 30 30" fill="none" xmlns="http://www.w3.org/2000/svg">
<path opacity="0.4" d="M27.0625 12.5375C26.575 11.8375 25.7125 11.4375 24.725 11.4375H19.6C19.2625 11.4375 18.95 11.3 18.7375 11.05C18.5125 10.8 18.425 10.45 18.475 10.0875L19.1125 5.98753C19.3875 4.76253 18.575 3.38753 17.35 2.97503C16.2125 2.55003 14.875 3.12503 14.3375 3.93753L9.06248 11.775L8.91248 12.025V23.075L9.09998 23.2625L13.0625 26.325C13.5875 26.85 14.775 27.1375 15.6125 27.1375H20.4875C22.1625 27.1375 23.85 25.875 24.225 24.3375L27.3 14.975C27.625 14.0875 27.5375 13.225 27.0625 12.5375Z" fill="#FAFAFA"/>
<path d="M6.5125 7.97498H5.225C3.2875 7.97498 2.5 8.72498 2.5 10.575V23.15C2.5 25 3.2875 25.75 5.225 25.75H6.5125C8.45 25.75 9.2375 25 9.2375 23.15V10.575C9.2375 8.72498 8.45 7.97498 6.5125 7.97498Z" fill="#FAFAFA"/>
</svg>
